<svg width="44" height="40" viewBox="0 0 44 40" fill="none" xmlns="http://www.w3.org/2000/svg">
<path d="M11.5047 0.507107C9.13801 1.03304 6.50836 2.21638 6.31113 2.84092C6.24539 3.07101 6.67271 3.5312 7.26438 3.82704C7.82318 4.15574 9.10514 5.04325 10.0913 5.83214C11.0774 6.62104 11.8334 7.01549 11.8334 6.78539C11.8334 6.29233 10.8144 5.24047 10.3542 5.24047C9.9269 5.24047 7.85605 3.85991 8.02041 3.66268C8.11902 3.59694 8.38198 3.66268 8.61208 3.82704C8.84217 3.99139 9.72968 4.38584 10.5514 4.71454C12.3593 5.37196 13.1482 6.65391 12.4908 7.83725C11.9649 8.82337 11.3075 8.69189 8.44772 7.08123C6.21252 5.79927 5.91669 5.70066 5.91669 6.25946C5.91669 6.62104 6.63984 7.64003 7.49448 8.49466C9.43384 10.434 12.2936 11.6174 19.1307 13.2938C21.7275 13.9512 24.6529 14.773 25.6391 15.1674C28.4659 16.2521 32.8706 19.0461 34.7442 20.9526C37.4067 23.6151 38.2942 27.0994 37.2752 31.0439C36.9465 32.2601 39.3461 29.1703 40.6938 26.6064C42.0415 24.1411 43.0605 20.8869 43.0605 19.2105C43.0605 17.797 40.891 14.247 38.7873 12.1762C35.5002 8.95485 31.7201 7.1141 25.8034 5.86502C21.596 4.97751 21.4974 5.01038 20.6756 6.62104C19.558 8.85624 18.4075 10.2039 17.1913 10.7299C15.9751 11.2229 14.4302 11.0586 13.3783 10.3354C12.8524 9.97384 12.9181 9.87523 14.0686 9.08633C16.4682 7.50854 16.9612 4.94464 15.3834 2.34786C15.0218 1.75619 14.7918 1.16452 14.9232 1.06591C15.2848 0.671459 17.7501 1.65758 19.1964 2.77518C20.577 3.82704 20.9714 3.92565 24.0613 4.22148C28.4659 4.6488 30.7997 5.27334 34.1197 6.91687C38.1628 8.88911 41.0554 11.9789 42.6332 15.9234C43.1591 17.304 43.1262 16.2521 42.5674 14.1155C41.8114 11.2229 40.4308 8.95485 37.9327 6.39094C35.0729 3.43259 31.49 1.55897 26.8881 0.605719C23.1409 -0.150307 14.8246 -0.216047 11.5047 0.507107ZM13.214 1.8548C14.0686 2.61082 13.97 3.79417 12.9839 4.45158C12.2278 4.94464 12.0964 4.94464 11.3403 4.45158C10.3871 3.82704 10.2885 2.77518 11.0774 1.88767C11.7348 1.16452 12.4251 1.13165 13.214 1.8548ZM29.222 9.64514C29.6821 9.9081 30.3396 10.5326 30.6354 11.0914C31.1942 12.0118 31.1942 12.0776 30.6354 12.5378C28.7618 14.1155 25.0474 14.3456 22.4177 12.9979C21.4645 12.5049 20.7085 11.9789 20.7085 11.8146C20.7085 11.6174 20.7413 11.4859 20.8071 11.4859C20.8399 11.4859 21.6946 11.1901 22.6807 10.8285L24.4886 10.2039H23.2066C21.5631 10.1711 21.8261 9.9081 24.0613 9.3493C26.0006 8.85624 27.8743 8.95485 29.222 9.64514Z" fill="#0B49B6"/>
<path d="M36.4207 0.901542C33.528 1.3946 32.9364 1.72331 34.2183 2.11775C35.073 2.38072 39.4776 6.78538 40.2994 8.16595C40.6281 8.72475 41.1869 9.18494 41.5156 9.18494C41.9758 9.18494 42.0744 9.08632 41.8114 8.75762C41.3512 8.19882 40.5295 4.81315 40.2336 2.34785C40.1022 1.16451 39.8721 0.342742 39.642 0.342742C39.4448 0.375612 37.9984 0.638577 36.4207 0.901542Z" fill="#0B49B6"/>
<path d="M3.64864 5.40482C1.18334 9.4479 0 13.8854 0 18.9804C0.0328706 25.423 2.00511 30.6494 5.88384 34.5282C8.48062 37.0921 10.4857 38.3412 13.4441 39.1629C19.065 40.7079 28.0386 40.0504 32.6734 37.7166L33.9225 37.0921L33.1665 36.2375C31.8845 34.8569 30.7998 34.2323 28.0386 33.2462L25.409 32.2601L22.6807 33.2134C19.6895 34.2652 17.6186 35.4814 15.7122 37.2893C15.0219 37.9467 14.4631 38.3412 14.4631 38.1768C14.4631 38.0125 15.2848 37.125 16.271 36.1717C17.8487 34.6597 21.3002 32.6874 23.4039 32.0629L24.1599 31.8328L23.4696 31.537C23.0752 31.3726 21.4974 31.011 19.9525 30.7152C17.3886 30.1893 16.9941 30.1893 14.8904 30.6823C12.2279 31.274 9.82831 32.2272 8.64497 33.1805C7.42876 34.1337 7.00144 34.0023 8.15191 33.0161C9.00655 32.293 11.4718 31.0439 14.1344 29.992C14.9561 29.6633 14.9561 29.6633 13.5098 28.9073C12.6881 28.5129 11.2417 27.6582 10.2885 27.0008C8.48062 25.8175 8.21765 25.7846 4.76624 26.442L3.78012 26.6392L4.60189 26.179C5.06207 25.9161 5.98245 25.6202 6.63986 25.4888L7.85608 25.2587L6.73848 23.8124C6.1468 22.9906 5.45652 21.8401 5.22643 21.1827C4.73337 19.9008 4.20744 19.6378 1.93937 19.6378C1.05186 19.6378 0.427318 19.5063 0.52593 19.342C0.624542 19.1776 1.54492 19.0461 2.59678 19.0461H4.50327L4.24031 17.6327C3.84586 15.6276 3.87873 11.1901 4.27318 11.8146C4.43753 12.0776 4.60189 13.1294 4.60189 14.1155C4.63476 16.1206 5.29217 19.5392 5.85097 20.5253C6.24542 21.2485 6.21255 21.2813 6.90283 18.6517C7.13292 17.797 7.52737 16.9095 7.75746 16.7123C8.15191 16.3836 8.15191 16.5151 7.75746 17.5998C7.52737 18.323 7.23153 19.7035 7.13292 20.6897C6.86996 22.8591 7.26441 23.4508 10.3542 25.6202L12.3265 26.9679L12.5566 25.3573C12.8524 23.3193 13.9371 20.4596 14.7918 19.3748C15.3506 18.6845 15.3177 18.8489 14.6274 20.3938C12.951 24.1082 12.8524 27.198 14.3645 27.8883C14.989 28.1842 19.2951 29.236 19.8539 29.236C19.8867 29.236 19.9196 27.9541 19.9196 26.3434C19.9196 24.1082 20.0511 23.155 20.6099 21.9059C21.0043 21.0512 21.3988 20.3609 21.4645 20.3609C21.5631 20.3609 21.333 21.2813 20.9715 22.3989C20.2812 24.5684 20.314 27.0008 21.0372 28.5786C21.333 29.2689 21.7932 29.499 24.0942 29.9592C25.5733 30.255 27.1511 30.6166 27.5456 30.7481L28.3345 30.9782L27.7757 29.8934C26.6252 27.6582 26.8224 23.7138 28.1701 22.5962C28.6303 22.2017 28.6303 22.2674 28.1701 23.2207C27.3155 24.8642 27.447 27.4281 28.5317 29.5318C29.2877 31.0439 29.715 31.4712 31.3914 32.3258C32.4762 32.8847 33.791 33.6407 34.3169 34.0023L35.2702 34.6268L35.0729 31.8657C34.8429 28.48 34.6128 27.8226 32.509 24.667C29.6822 20.3938 27.3155 19.079 19.3937 17.4355C10.0584 15.4961 7.4945 14.0827 5.588 9.77662C5.16069 8.75763 4.93059 7.50854 4.89772 5.93075C4.86485 4.6488 4.83198 3.59694 4.79911 3.59694C4.76624 3.59694 4.24031 4.4187 3.64864 5.40482Z" fill="#2E6D4A"/>
</svg>
