<svg width="34" height="34" viewBox="0 0 34 34" fill="none" xmlns="http://www.w3.org/2000/svg">
<path d="M31.9396 24.4608V28.977C31.9413 29.3962 31.8555 29.8112 31.6875 30.1954C31.5195 30.5795 31.2732 30.9243 30.9643 31.2078C30.6553 31.4912 30.2906 31.707 29.8934 31.8413C29.4963 31.9756 29.0754 32.0255 28.6579 31.9878C24.0255 31.4844 19.5758 29.9015 15.6662 27.3662C12.0289 25.0549 8.94511 21.9711 6.63381 18.3338C4.08964 14.4065 2.50636 9.93512 2.01222 5.28192C1.9746 4.86563 2.02407 4.44607 2.15749 4.04994C2.29091 3.65381 2.50535 3.28981 2.78715 2.9811C3.06895 2.67239 3.41195 2.42574 3.7943 2.25685C4.17665 2.08796 4.58998 2.00054 5.00797 2.00015H9.52418C10.2548 1.99296 10.963 2.25167 11.517 2.72806C12.0709 3.20445 12.4327 3.86601 12.535 4.58944C12.7256 6.03473 13.0791 7.45381 13.5888 8.81962C13.7913 9.35844 13.8351 9.94403 13.7151 10.507C13.595 11.07 13.3161 11.5867 12.9113 11.996L10.9995 13.9079C13.1425 17.6767 16.2631 20.7973 20.0319 22.9403L21.9438 21.0284C22.3531 20.6237 22.8698 20.3448 23.4328 20.2247C23.9958 20.1046 24.5813 20.1485 25.1202 20.351C26.486 20.8607 27.9051 21.2142 29.3503 21.4048C30.0816 21.508 30.7495 21.8763 31.2269 22.4398C31.7043 23.0032 31.958 23.7225 31.9396 24.4608Z" stroke="#0B49B6" stroke-width="3" stroke-linecap="round" stroke-linejoin="round"/>
</svg>
