<svg width="336" height="470" viewBox="0 0 336 470" fill="none" xmlns="http://www.w3.org/2000/svg">
<path d="M134.906 108.119C120.38 111.347 104.239 118.61 103.029 122.444C102.625 123.856 105.248 126.68 108.88 128.496C112.309 130.514 120.178 135.961 126.23 140.803C132.283 145.645 136.923 148.066 136.923 146.654C136.923 143.628 130.669 137.172 127.844 137.172C125.222 137.172 112.511 128.698 113.52 127.487C114.125 127.084 115.739 127.487 117.152 128.496C118.564 129.505 124.011 131.926 129.055 133.944C140.151 137.979 144.993 145.847 140.958 153.11C137.73 159.163 133.695 158.356 116.143 148.47C102.424 140.601 100.608 139.996 100.608 143.426C100.608 145.645 105.046 151.9 110.292 157.145C122.195 169.049 139.748 176.312 181.713 186.601C197.651 190.636 215.607 195.68 221.66 198.101C239.01 204.759 266.045 221.908 277.545 233.61C293.887 249.952 299.335 271.337 293.08 295.548C291.063 303.013 305.791 284.048 314.063 268.311C322.335 253.18 328.589 233.206 328.589 222.917C328.589 214.241 315.273 192.452 302.361 179.742C282.186 159.97 258.984 148.672 222.668 141.005C196.844 135.558 196.239 135.759 191.195 145.645C184.335 159.364 177.274 167.636 169.809 170.864C162.344 173.891 152.862 172.882 146.406 168.443C143.178 166.224 143.581 165.619 150.643 160.777C165.371 151.093 168.397 135.356 158.713 119.417C156.493 115.786 155.081 112.154 155.888 111.549C158.107 109.128 173.239 115.181 182.116 122.04C190.59 128.496 193.011 129.101 211.976 130.917C239.01 133.54 253.335 137.373 273.712 147.461C298.528 159.566 316.282 178.531 325.966 202.741C329.194 211.215 328.992 204.759 325.563 191.645C320.922 173.891 312.449 159.97 297.115 144.233C279.563 126.075 257.572 114.575 229.326 108.724C206.326 104.084 155.283 103.681 134.906 108.119ZM145.397 116.391C150.643 121.031 150.037 128.294 143.985 132.33C139.344 135.356 138.537 135.356 133.897 132.33C128.046 128.496 127.441 122.04 132.283 116.593C136.318 112.154 140.555 111.952 145.397 116.391ZM243.651 164.207C246.475 165.821 250.51 169.654 252.326 173.084C255.756 178.733 255.756 179.136 252.326 181.961C240.826 191.645 218.028 193.057 201.888 184.785C196.037 181.759 191.397 178.531 191.397 177.522C191.397 176.312 191.598 175.505 192.002 175.505C192.204 175.505 197.449 173.689 203.502 171.47L214.598 167.636H206.73C196.642 167.435 198.256 165.821 211.976 162.391C223.879 159.364 235.379 159.97 243.651 164.207Z" fill="#0B49B6"/>
<path d="M287.834 110.54C270.08 113.567 266.448 115.584 274.317 118.005C279.562 119.619 306.597 146.654 311.641 155.128C313.659 158.558 317.088 161.382 319.106 161.382C321.93 161.382 322.536 160.777 320.922 158.759C318.097 155.329 313.053 134.549 311.238 119.417C310.431 112.154 309.018 107.11 307.606 107.11C306.395 107.312 297.518 108.926 287.834 110.54Z" fill="#0B49B6"/>
<path d="M86.6867 138.18C71.5552 162.996 64.2921 190.233 64.2921 221.504C64.4938 261.048 76.599 293.127 100.406 316.934C116.344 332.67 128.651 340.337 146.809 345.381C181.309 354.863 236.388 350.828 264.835 336.504L272.501 332.67L267.861 327.425C259.993 318.951 253.335 315.118 236.388 309.065L220.247 303.013L203.502 308.864C185.142 315.32 172.432 322.785 160.73 333.881C156.493 337.916 153.063 340.337 153.063 339.328C153.063 338.32 158.107 332.872 164.16 327.021C173.844 317.741 195.028 305.636 207.94 301.802L212.581 300.39L208.344 298.574C205.923 297.565 196.239 295.346 186.756 293.53C171.019 290.302 168.598 290.302 155.686 293.329C139.344 296.96 124.616 302.811 117.353 308.662C109.888 314.513 107.265 313.706 114.327 307.653C119.572 303.214 134.704 295.548 151.046 289.092C156.09 287.074 156.09 287.074 147.213 282.434C142.169 280.013 133.292 274.767 127.441 270.732C116.344 263.469 114.73 263.267 93.5463 267.302L87.4937 268.513L92.5375 265.688C95.362 264.074 101.011 262.259 105.046 261.452L112.511 260.039L105.651 251.162C102.02 246.118 97.7831 239.057 96.3708 235.022C93.3445 227.154 90.1165 225.54 76.1955 225.54C70.7482 225.54 66.9148 224.732 67.5201 223.724C68.1254 222.715 73.7745 221.908 80.2306 221.908H91.9322L90.3182 213.233C87.8972 200.926 88.0989 173.689 90.52 177.522C91.5287 179.136 92.5375 185.592 92.5375 191.645C92.7393 203.952 96.7743 224.934 100.204 230.987C102.625 235.425 102.423 235.627 106.66 219.487C108.072 214.241 110.494 208.794 111.906 207.583C114.327 205.566 114.327 206.373 111.906 213.031C110.494 217.469 108.678 225.943 108.072 231.996C106.458 245.311 108.88 248.943 127.844 262.259L139.949 270.53L141.362 260.645C143.178 248.136 149.835 230.583 155.081 223.925C158.511 219.689 158.309 220.697 154.072 230.18C143.783 252.978 143.178 271.943 152.458 276.18C156.292 277.995 182.721 284.451 186.151 284.451C186.353 284.451 186.554 276.583 186.554 266.697C186.554 252.978 187.362 247.127 190.791 239.46C193.212 234.215 195.633 229.978 196.037 229.978C196.642 229.978 195.23 235.627 193.011 242.487C188.774 255.802 188.976 270.732 193.414 280.416C195.23 284.653 198.054 286.065 212.177 288.89C221.256 290.706 230.94 292.925 233.361 293.732L238.203 295.144L234.774 288.486C227.712 274.767 228.923 250.557 237.195 243.697C240.019 241.276 240.019 241.68 237.195 247.531C231.949 257.618 232.756 273.355 239.414 286.267C244.054 295.548 246.677 298.171 256.966 303.416C263.624 306.846 271.694 311.486 274.922 313.706L280.773 317.539L279.563 300.592C278.15 279.811 276.738 275.776 263.826 256.408C246.475 230.18 231.949 222.11 183.326 212.022C126.029 200.119 110.292 191.443 98.5901 165.014C95.9673 158.759 94.555 151.093 94.3533 141.408C94.1515 133.54 93.9498 127.084 93.748 127.084C93.5463 127.084 90.3182 132.128 86.6867 138.18Z" fill="#2E6D4A"/>
<path d="M164.282 384.29L167.311 382.488L170.33 380.857L173.016 379.035L176.943 378.059L182.548 376.321L188.264 375.621L192.686 375.018L199.517 374.383L203.489 374.098L207.633 373.823L211.187 373.341L214.368 371.892L219.055 369.67L224.241 367.736L228.007 366.578L231.061 365.81L234.045 364.779L237.09 364.182L239.343 363.883L242.564 363.21L244.379 363.058L245.68 362.875L247.243 362.622L250.843 362.831L252.128 362.906L253.434 362.638L255.082 362.39L258.939 362.614L262.03 362.707L267.087 363.001L268.887 363.106L271 363.745L273.198 364.388L276.391 365.692L278.726 366.946L280.652 367.831L283.154 369.181L285.903 370.717L287.557 371.845L290.473 373.476L292.707 374.982L295.512 377.037L296.924 377.893L297.661 378.538L298.649 379.283L299.724 380.034L300.375 380.674L301.62 381.434L302.443 382.084L303.25 382.991L303.881 383.974L304.653 385.48L305.103 386.625L305.618 388.117L306.224 389.528L306.734 391.105L307.699 393.742L307.972 394.961L308.493 396.368L308.917 397.94L309.423 399.604L309.974 401.958L310.601 404.488L311.035 405.89L311.47 407.291L312.278 409.66L312.789 411.238L313.294 412.901L314.506 415.723L315.112 417.135L315.88 418.727L316.794 420.758L317.647 422.356L318.258 423.682L319.197 425.284L320.136 426.887L320.6 427.774L320.999 428.313L321.554 429.119L322.265 430.193L323.689 432.339L325.031 434.395L325.657 435.464L326.283 436.532L326.904 437.686L327.298 438.311L327.772 439.027L328.413 439.838L329.054 440.649L329.69 441.546L330.079 442.257L330.785 443.416L331.472 444.918C316.064 461.429 294.601 466.712 285.795 467.29L285.218 463.902C280.542 439.292 279.267 440.508 278.608 435.568C278.081 431.615 275.539 424.754 274.333 421.817C257.944 419.695 247.919 420.54 244.955 421.228C238.654 422.611 223.455 425.362 213.07 425.309C202.684 425.256 197.778 425.51 196.624 425.644C193.804 426.311 186.115 426.22 177.916 420.514C167.666 413.383 167.021 414.119 164.621 413.98C162.221 413.84 156.462 412.302 154.269 411.572C152.514 410.989 147.415 408.164 145.085 406.824L140.298 403.364L134.225 399.829L128.546 396.919L123.982 395.536C122.377 395.041 119.099 394.031 118.828 393.947C118.558 393.862 116.285 393.311 115.183 393.047C114.606 393.099 111.984 392.74 106.106 390.885C98.7588 388.566 102.006 388.927 101.164 388.62C100.49 388.374 99.6411 386.209 99.3009 385.158M164.282 384.29L161.914 386.56L160.479 389.057L160.052 390.494L159.876 392.032L159.998 392.899L160.659 393.367M164.282 384.29L162.684 383.681L162.184 383.394L161.347 383.001L159.063 382.352L158.054 381.95C157.315 381.849 155.819 381.648 155.75 381.644C155.681 381.64 155.278 381.387 155.084 381.261L153.98 381.025L152.699 380.865L151.605 380.457C151.38 380.387 150.912 380.245 150.843 380.241C150.775 380.237 150.015 380.193 149.643 380.171L147.253 379.86L146.396 379.81C146.085 379.735 145.446 379.583 145.378 379.579C145.309 379.575 144.667 379.48 144.354 379.434L142.388 379.233L140.416 379.119C140.22 379.05 139.809 378.911 139.741 378.907C139.672 378.904 139.03 378.809 138.717 378.762C138.405 378.715 137.762 378.621 137.694 378.617C137.625 378.613 137.107 378.353 136.856 378.224L135.676 377.811L135.197 377.181L134.284 376.612L132.942 376.018L131.51 375.505L130.174 374.826L129.422 374.438L127.909 373.834L126.815 373.426L125.791 373.281L125.03 373.065C124.775 373.021 124.212 372.931 124.006 372.919C123.801 372.907 123.575 372.951 123.487 372.975L122.706 373.102L121.329 373.108L120.72 373.244L119.928 373.542L119.308 373.85L118.688 374.158L118.24 374.476L117.706 374.789L117.918 375.575M160.659 393.367L161.496 393.76L162.5 394.248L164.265 394.953L166.035 395.572L167.553 396.09L169.666 396.729L171.274 397.166L173.578 397.472L175.126 397.476L179.588 397.649L182.946 397.586L185.986 397.075L189.373 396.498L194.152 395.658M160.659 393.367L158.259 393.228L156.312 392.685L154.734 391.733L153.125 391.295L151.223 389.981L149.63 389.286L146.891 387.579L145.731 386.824L144.399 386.058L141.751 384.27L140.733 384.039L139.467 383.622L137.082 383.225L135.968 383.16L133.048 383.077L130.886 383.295L129.262 383.115M194.152 395.658L196.854 395.041L198.755 394.893L200.983 395.022L203.832 394.844L205.561 394.686L211.147 394.753L214.233 394.932L221.124 394.731L225.547 395.59L228.683 396.374L232.042 397.773L235.023 399.753L237.252 401.344L238.579 402.195L240.168 402.976L241.676 403.665L243.174 404.526L245.09 405.584L247.037 406.127L248.141 406.363L249.512 406.443L250.702 406.684L251.131 406.709M194.152 395.658L193.271 397.498L191.931 398.366L190.565 399.663L189.114 400.955L187.986 402.609L187.226 403.855L186.727 405.03L185.977 406.105L185.383 407.446L185.323 408.475L185.269 409.418L185.254 409.675M129.262 383.115L128.349 382.546L127.608 381.987L126.957 381.347L126.634 380.984L125.146 379.951L124.651 379.579L124.152 379.292L120.586 377.02L119.002 376.154L118.412 375.948L117.918 375.575M129.262 383.115C104.567 379.478 98.9985 382.961 99.3009 385.158M117.918 375.575L116.914 375.087L116.324 374.881L115.825 374.594L115.24 374.302L114.645 374.181L113.616 374.121L112.946 373.824L112.189 373.522L111.342 373.301L110.238 373.065L107.314 373.067C106.789 373.209 105.652 373.538 105.297 373.724C104.854 373.956 101.885 374.73 101.708 374.805C101.532 374.881 98.3966 375.559 98.1345 375.63C97.8724 375.701 94.8984 376.56 94.7121 376.807C94.5257 377.054 93.5679 377.256 93.5032 378.371C93.4384 379.485 93.7873 380.881 94.0295 381.153C94.2717 381.425 95.069 382.504 95.8155 382.977C96.562 383.451 95.4777 382.872 97.7122 384.377C98.9871 384.933 99.3026 385.129 99.3009 385.158" stroke="#212F3D" stroke-width="2.5" stroke-linejoin="round"/>
<path d="M173.723 78.0041L170.867 80.0695L168.006 81.9633L165.494 84.018L161.67 85.3407L156.243 87.5728L150.611 88.7806L146.262 89.7763L139.515 91.0191L135.583 91.658L131.481 92.3024L127.984 93.0994L124.946 94.827L120.476 97.4585L115.483 99.8488L111.836 101.338L108.862 102.376L105.982 103.669L103.003 104.536L100.785 105.035L97.6371 105.993L95.8431 106.307L94.564 106.605L93.0301 106.997L89.426 107.11L88.1387 107.151L86.8623 107.534L85.2426 107.929L81.381 108.05L78.2944 108.233L73.2314 108.392L71.4293 108.449L69.2677 108.001L67.0204 107.556L63.7244 106.543L61.2865 105.503L59.2885 104.793L56.6763 103.673L53.8013 102.388L52.0527 101.413L49.0034 100.048L46.6432 98.748L43.6662 96.9517L42.1831 96.2253L41.3919 95.6488L40.3406 94.9947L39.2034 94.3432L38.498 93.7641L37.1892 93.118L36.3122 92.5443L35.4271 91.7131L34.7109 90.7908L33.8069 89.3589L33.257 88.2595L32.6104 86.8195L31.8808 85.4681L31.2315 83.9423L30.0351 81.4029L29.654 80.2123L29.0102 78.8582L28.4468 77.3297L27.7948 75.7181L27.0355 73.4227L26.185 70.9584L25.6269 69.6015L25.0689 68.2447L24.0521 65.9573L23.4029 64.4316L22.751 62.82L21.2916 60.1171L20.562 58.7656L19.6553 57.2479L18.5635 55.3066L17.571 53.7916L16.844 52.5259L15.7657 51.0136L14.6874 49.5014L14.1456 48.6594L13.7003 48.158L13.0753 47.4045L12.2706 46.399L10.6613 44.388L9.14041 42.4602L8.42153 41.452L7.70266 40.4438L6.98109 39.3498L6.53314 38.7625L5.99668 38.0922L5.2859 37.3415L4.57511 36.5907L3.86163 35.7541L3.41099 35.0811L2.6036 33.9898L1.78543 32.5552C15.6564 14.7334 36.5619 7.55383 45.2808 6.19178L46.1583 9.51426C53.0143 33.6082 54.1752 32.2832 55.2729 37.145C56.151 41.0344 59.2964 47.6414 60.7593 50.4587C77.2723 51.108 87.182 49.3706 90.0727 48.4208C96.2251 46.4809 111.117 42.3822 121.466 41.5072C131.815 40.6322 136.678 39.9411 137.816 39.7049C140.565 38.7882 148.231 38.1922 156.908 43.1422C167.754 49.3297 168.33 48.5385 170.733 48.463C173.136 48.3875 179.009 49.4055 181.259 49.9361C183.059 50.3605 188.39 52.7184 190.831 53.8443L195.908 56.863L202.272 59.8413L208.188 62.2323L212.857 63.2023C214.5 63.5515 217.856 64.265 218.132 64.325C218.409 64.385 220.722 64.7304 221.844 64.8955C222.413 64.7918 225.057 64.9148 231.077 66.2375C238.602 67.8908 235.336 67.8216 236.202 68.0521C236.895 68.2365 237.934 70.3169 238.367 71.3341M173.723 78.0041L175.879 75.5312L177.085 72.9163L177.382 71.4467L177.42 69.8994L177.221 69.0466L176.521 68.6391M173.723 78.0041L175.37 78.4678L175.893 78.709L176.762 79.0253L179.095 79.4674L180.135 79.7783C180.881 79.8121 182.389 79.8793 182.458 79.8771C182.526 79.8749 182.951 80.0907 183.155 80.1988L184.276 80.3354L185.566 80.3807L186.692 80.6889C186.923 80.7389 187.401 80.8384 187.47 80.8363C187.539 80.8341 188.299 80.8102 188.671 80.7985L191.079 80.8946L191.938 80.8677C192.254 80.915 192.904 81.0091 192.973 81.0069C193.041 81.0048 193.69 81.0417 194.005 81.0604L195.982 81.0842L197.955 81.0222C198.157 81.0731 198.579 81.1744 198.647 81.1722C198.716 81.1701 199.364 81.2069 199.68 81.2257C199.995 81.2444 200.644 81.2813 200.712 81.2791C200.781 81.277 201.32 81.4891 201.581 81.5954L202.793 81.9009L203.327 82.4854L204.287 82.9706L205.676 83.4424L207.149 83.8256L208.541 84.3832L209.324 84.7021L210.885 85.1685L212.011 85.4767L213.043 85.5301L213.821 85.6775C214.08 85.698 214.648 85.7374 214.854 85.731C215.06 85.7245 215.281 85.6603 215.366 85.629L216.133 85.4331L217.503 85.3041L218.098 85.1136L218.86 84.7461L219.45 84.3839L220.04 84.0218L220.458 83.6651L220.962 83.3056L220.68 82.5414M176.521 68.6391L175.652 68.3228L174.609 67.9261L172.788 67.382L170.97 66.9238L169.411 66.5433L167.25 66.0958L165.609 65.8038L163.286 65.705L161.744 65.8393L157.285 66.0654L153.946 66.428L150.964 67.2089L147.642 68.0864L142.957 69.3503M176.521 68.6391L178.924 68.5636L180.911 68.9307L182.568 69.7376L184.21 70.0296L186.221 71.1689L187.871 71.7184L190.751 73.1741L191.974 73.8228L193.369 74.4662L196.166 76.0104L197.201 76.1496L198.499 76.4524L200.91 76.6344L202.025 76.5993L204.94 76.4218L207.075 76.0111L208.708 76.0457M142.957 69.3503L140.321 70.2062L138.441 70.523L136.21 70.5931L133.389 71.0254L131.681 71.3367L126.111 71.7695L123.022 71.8665L116.175 72.683L111.694 72.2225L108.5 71.7216L105.03 70.6281L101.884 68.9231L99.521 67.537L98.1237 66.8079L96.4717 66.1726L94.9081 65.6204L93.3392 64.8966L91.3358 64.0147L89.3486 63.6477L88.2276 63.5111L86.8546 63.5542L85.6478 63.4204L85.2187 63.4339M142.957 69.3503L143.67 67.4381L144.927 66.4537L146.172 65.0402L147.501 63.6241L148.477 61.8754L149.123 60.5666L149.515 59.3517L150.166 58.2146L150.638 56.8254L150.605 55.7956L150.576 54.8516L150.568 54.5942M208.708 76.0457L209.668 76.5309L210.457 77.0215L211.162 77.6007L211.516 77.9331L213.091 78.8285L213.616 79.1556L214.139 79.3969L217.894 81.3405L219.549 82.0616L220.155 82.2143L220.68 82.5414M208.708 76.0457C233.629 77.4616 238.864 73.4946 238.367 71.3341M220.68 82.5414L221.724 82.9381L222.33 83.0908L222.853 83.3321L223.462 83.5707L224.065 83.6376L225.095 83.6052L225.789 83.8411L226.57 84.0743L227.433 84.2189L228.554 84.3555L231.467 84.0922C231.976 83.9044 233.079 83.4746 233.416 83.2578C233.837 82.9869 236.725 81.9513 236.894 81.8601C237.063 81.7689 240.125 80.8136 240.38 80.7197C240.635 80.6258 243.52 79.5044 243.684 79.2415C243.847 78.9787 244.783 78.6916 244.748 77.576C244.713 76.4604 244.241 75.1009 243.975 74.8515C243.71 74.6022 242.819 73.5994 242.033 73.1946C241.247 72.7898 242.379 73.2696 240.019 71.9694C238.7 71.5298 238.368 71.3627 238.367 71.3341" stroke="#212F3D" stroke-width="2.5" stroke-linejoin="round"/>
</svg>
