<svg width="29" height="34" viewBox="0 0 29 34" fill="none" xmlns="http://www.w3.org/2000/svg">
<path d="M26.5455 14.2727C26.5455 23.8182 14.2727 32 14.2727 32C14.2727 32 2 23.8182 2 14.2727C2 11.0178 3.29302 7.89618 5.5946 5.5946C7.89618 3.29302 11.0178 2 14.2727 2C17.5277 2 20.6493 3.29302 22.9509 5.5946C25.2524 7.89618 26.5455 11.0178 26.5455 14.2727Z" stroke="#0B49B6" stroke-width="3" stroke-linecap="round" stroke-linejoin="round"/>
<path d="M14.2727 18.3635C16.5321 18.3635 18.3636 16.5319 18.3636 14.2725C18.3636 12.0132 16.5321 10.1816 14.2727 10.1816C12.0134 10.1816 10.1818 12.0132 10.1818 14.2725C10.1818 16.5319 12.0134 18.3635 14.2727 18.3635Z" stroke="#0B49B6" stroke-width="3" stroke-linecap="round" stroke-linejoin="round"/>
</svg>
